<?xml version="1.0" encoding="utf-8"?>
<!-- Generator: Adobe Illustrator 18.1.1, SVG Export Plug-In . SVG Version: 6.00 Build 0)  -->
<svg version="1.1" id="Layer_1" xmlns="http://www.w3.org/2000/svg" xmlns:xlink="http://www.w3.org/1999/xlink" x="0px" y="0px"
	 viewBox="0 0 897 1487.9" enable-background="new 0 0 897 1487.9" xml:space="preserve">
<g>
	<g>
		<path fill="#FFFFFF" d="M832.5,1321.3H64.6c-8.2,0-14.8-6.6-14.8-14.8V53c0-8.2,6.6-14.8,14.8-14.8h767.8
			c8.2,0,14.8,6.6,14.8,14.8v1253.5C847.3,1314.6,840.6,1321.3,832.5,1321.3z M79.4,1291.6h738.2V67.8H79.4V1291.6z"/>
		<g>
			<g>
				<path fill="#FFFFFF" d="M241.8,300.7c-2.8-1.1-7.3-1.1-11.8-1.1c-7.8,0-15.7,0-20.7,0c-8.4,0-10.1-2.8-10.1-15.1
					c0-12.3,1.1-16.8,7.8-16.8c35.3,0,80.1,0,115.3,0c6.7,0,7.3,5.6,7.3,16.8c0,12.9-0.6,15.1-6.7,15.1c-6.7,0-14.6-0.6-24.1,0
					c-4.5,0-9,0-11.8,1.1c-5,3.9-3.9,13.4-3.9,20.7c0,123.7,0,209.9,0,332.6c0,5-8.4,5.6-20.2,5.6c-10.1,0-17.4,0-17.4-5.6
					c0-122.6,0-209.4,0-332.6C245.8,314.1,246.9,304.6,241.8,300.7z"/>
				<path fill="#FFFFFF" d="M359.2,651.2c0-140.5,0-238.5,0-372.9c0-7.3,2.2-10.1,16.8-10.1c15.7,0,19.6,2.2,19.6,10.6
					c0,45.9,0,86.8,0,132.1c0,9.5-1.7,20.7,6.7,25.2c4.5,1.7,40.9,3.4,46.5,0c5-3.4,3.9-15.1,3.9-23.5c0-47,0-95.7,0-136
					c0-10.1,4.5-8.4,17.9-8.4c15.7,0,18.5,0,18.5,9c0,132.7,0,232.3,0,370.6c0,10.1,0.6,11.2-17.9,11.2c-16.8,0-18.5-0.6-18.5-11.2
					c0-53.2,0-99.7,0-152.8c0-6.7,0.6-17.9-3.4-19c-6.2-3.4-48.1-1.1-50.4,0.6c-5,3.4-3.9,12.9-3.9,20.1c0,54.3,0,99.1,0,153.4
					c0,9-3.4,9-19,9C361.5,659,359.2,659,359.2,651.2z"/>
				<path fill="#FFFFFF" d="M533.9,638.3c0-134.4,0-219.5,0-353.8c0-7.3,0.6-7.8,3.9-12.3c3.4-4.5,7.3-4.5,12.9-4.5
					c30.8,0,62.1,0,92.9,0c6.7,0,6.7,6.7,6.7,16.8c0,10.6,0,15.1-7.3,15.1c-15.1,0-45.3,0-56,0c-4.5,0-11.2,0.6-12.9,2.8
					c-2.8,3.9-2.8,3.4-2.8,10.6c0,37.5,0,68.9,0,106.4c0,5-1.1,11.2,3.4,14.6c3.9,2.8,7.8,2.2,12.3,2.2c9.5,0,21.3,0,26.3,0
					c6.7,0,7.8,4.5,7.8,16.2c0,11.2-0.6,15.7-7.8,15.7c-4.5,0-15.1,0-25.2,0c-5.6,0-11.8,0.6-14,1.7c-5,3.4-3.9,9-3.9,16.2
					c0,44.8,0,75.6,0,120.4c0,7.3,0,17.9,2.8,19.6c2.8,1.7,10.6,2.2,16.8,2.2c15.1,0,38.1,0,53.2,0c6.7,0,7.3,3.4,7.3,15.7
					s-0.6,15.7-6.7,15.7c-24.1,0-59.9,0-84,0c-9,0-18.5,1.1-22.4-2.2C532.8,653.4,533.9,645,533.9,638.3z"/>
			</g>
			<g>
				<path fill="#FFFFFF" d="M343.1,1100.9c-29.7,0-76.1,0-83.4,0c-6.2,0-12.3-0.6-14.6-3.9c-2.8-4.5-2.2-12.9-2.2-20.2
					c0-134.4,0-226.7,0-360.5c0-8.4,5.6-7.3,16.8-7.3c14.6,0,19.6,0,19.6,8.4c0,122.6,0,208.8,0,329.8c0,7.3-1.1,16.2,3.9,20.2
					c2.2,1.1,8.4,1.7,12.9,1.7c9.5,0,37.5,0,47,0c7.3,0,7.8,4.5,7.8,15.1C351,1098.2,350.4,1100.9,343.1,1100.9z"/>
				<path fill="#FFFFFF" d="M378.6,1100.9c-8.4,0-15.7,0-15.1-5c17.4-145.6,32.5-253,48.1-379c1.1-7.8,3.9-8.4,16.2-8.4
					c14,0,18.5,0.6,19.6,10.1c19,143.3,28.6,230.7,47.6,376.8c0.6,6.2-2.2,5.6-17.4,5.6c-16.2,0-19,1.1-20.2-6.7
					c-4.5-31.4-7.8-59.3-12.3-90.1c-0.6-5.6-8.4-5-17.4-5c-10.6,0-16.2-0.6-16.8,5c-3.4,31.3-6.2,58.8-9,91.3
					C401.6,1101.5,396.5,1100.9,378.6,1100.9z M428.5,968.3c6.7,0,12.9,0,12.3-4.5c-3.9-48.1-5.6-78.9-9-123.2
					c0-2.2-0.6-6.2-3.9-6.2c-2.8,0-3.4,3.9-3.4,5.6c-3.4,47-5.6,86.2-8.4,123.2C415.6,967.1,420.6,968.3,428.5,968.3z"/>
				<path fill="#FFFFFF" d="M521.7,726.4c0-5.6,0-10.6,3.4-14c4.5-3.9,9-3.4,13.4-3.4c11.8,0,20.2,0,31.9,0c17.4,0,42,4.5,58.8,19.6
					c16.8,15.7,20.7,38.1,20.7,58.2c0,19,0,31.3,0,50.4c0,13.4,0.6,22.9-6.2,35.3c-8.4,15.7-25.8,20.1-25.8,22.4
					c0,2.2,19,5.6,27.4,22.4c6.7,13.4,6.2,21.8,6.2,35.3c0,26.3,0,43.1,0,69.4c0,14,0,31.3-20.2,54.9c-19,21.3-45.4,24.1-58.8,24.1
					c-10.1,0-17.4,0.6-27.4,0c-6.7-0.6-16.8,0.6-19-2.8c-3.4-5-4.5-3.9-4.5-19C521.7,947,521.7,859.6,521.7,726.4z M576,746
					c-7.8,0-14,0-16.2,3.9c-1.7,3.4-1.7,6.2-1.7,9.5c0,40.3,0,65.5,0,104.7c0,6.2-0.6,11.2,3.4,15.1c3.4,3.4,5.6,2.8,10.1,2.8
					c7.8,0,20.7-1.7,30.8-12.3c11.2-12.3,11.2-20.7,11.2-29.7c0-20.2,0-33,0-53.2c0-12.9-2.2-22.4-11.8-32.5
					C595.6,748.8,591.7,746,576,746z M563.7,1064c4.5,0.6,5,0.6,10.1,0.6c6.2,0,20.2-1.7,30.2-12.3c11.2-12.3,11.8-20.2,11.8-29.7
					c0-26.9,0-45.9,0-71.7c0-25.8-15.1-37-31.9-37c-24.1,0-25.8,1.7-25.8,15.1c0,34.7,0,73.3,0,117.6
					C558.1,1052.8,558.6,1063.4,563.7,1064z"/>
			</g>
		</g>
	</g>
	<g>
		<path fill="#FFFFFF" d="M48.5,1379.4h24.4c14.2,0,25.8,7,25.8,23.3c0,16.2-11.7,23.4-25.8,23.4H62.8v22.8H48.5V1379.4z
			 M72.5,1413.5c7,0,11.5-3.2,11.5-10.8c0-7.8-4.7-10.7-11.5-10.7h-9.7v21.6H72.5z"/>
		<path fill="#FFFFFF" d="M122.1,1379.4h14.3v29.4h29.7v-29.4h14.3v69.5h-14.3v-27.3h-29.7v27.3h-14.3V1379.4z"/>
		<path fill="#FFFFFF" d="M204.8,1414.1c0-20.5,15.9-35.7,35.9-35.7s36,15.1,36,35.7c0,20.5-15.9,35.6-36,35.6
			S204.8,1434.6,204.8,1414.1z M262,1414.1c0-13-8.6-22.9-21.2-22.9s-21.2,9.9-21.2,22.9c0,13,8.6,22.9,21.2,22.9
			S262,1427.1,262,1414.1z"/>
		<path fill="#FFFFFF" d="M312.9,1391.9H293v-12.6H347v12.6h-19.8v56.9h-14.3V1391.9z"/>
		<path fill="#FFFFFF" d="M363.3,1414.1c0-20.5,15.9-35.7,35.9-35.7c20,0,36,15.1,36,35.7c0,20.5-15.9,35.6-36,35.6
			C379.2,1449.7,363.3,1434.6,363.3,1414.1z M420.5,1414.1c0-13-8.6-22.9-21.2-22.9c-12.7,0-21.2,9.9-21.2,22.9
			c0,13,8.6,22.9,21.2,22.9C411.9,1437,420.5,1427.1,420.5,1414.1z"/>
		<path fill="#FFFFFF" d="M459.6,1379.4h26.5c14.1,0,21.2,8.1,21.2,18.6c0,6.7-4.1,12.6-10.6,14.2c8.2,2,13.6,7,13.6,16.7
			c0,11.3-8.3,19.9-22.6,19.9h-28.1V1379.4z M484.3,1406.8c5.8,0,8.9-2.8,8.9-7.5c0-4.7-2.6-7.5-8.2-7.5h-11.1v14.9H484.3z
			 M487.1,1436.3c5.2,0,8.8-3.5,8.8-8.7c0-5.1-3.7-8.6-9.6-8.6h-12.4v17.3H487.1z"/>
		<path fill="#FFFFFF" d="M531.3,1414.1c0-20.5,15.9-35.7,36-35.7c20,0,35.9,15.1,35.9,35.7c0,20.5-15.9,35.6-35.9,35.6
			C547.2,1449.7,531.3,1434.6,531.3,1414.1z M588.5,1414.1c0-13-8.6-22.9-21.2-22.9c-12.7,0-21.2,9.9-21.2,22.9
			c0,13,8.6,22.9,21.2,22.9C579.9,1437,588.5,1427.1,588.5,1414.1z"/>
		<path fill="#FFFFFF" d="M625.2,1414.1c0-20.5,15.9-35.7,35.9-35.7c20,0,36,15.1,36,35.7c0,20.5-15.9,35.6-36,35.6
			C641.2,1449.7,625.2,1434.6,625.2,1414.1z M682.4,1414.1c0-13-8.6-22.9-21.2-22.9c-12.7,0-21.2,9.9-21.2,22.9
			c0,13,8.6,22.9,21.2,22.9C673.8,1437,682.4,1427.1,682.4,1414.1z"/>
		<path fill="#FFFFFF" d="M733.3,1391.9h-19.8v-12.6h53.9v12.6h-19.8v56.9h-14.3V1391.9z"/>
		<path fill="#FFFFFF" d="M790.2,1379.4h14.3v29.4h29.7v-29.4h14.3v69.5h-14.3v-27.3h-29.7v27.3h-14.3V1379.4z"/>
	</g>
</g>
</svg>
