<svg id="Layer_1" data-name="Layer 1" xmlns="http://www.w3.org/2000/svg" viewBox="0 0 655.16 103.75"><title>logo_FPMA</title><path fill="#ffffff" d="M81,69.28V80.8h78.53L140.45,107H81v37H47.61v-101H162.7l-19.1,26.22H81ZM254,43.17H191L170,69.39h87.69S273,70.6,273,80.56c0,8.32-9.36,11.65-13.74,11.65H170v51.92h34.18v-26H254s50.71,3.28,50.71-36.87S254,43.17,254,43.17Zm205.59-.11c-13.39,0-17.3,8.52-19.62,12.24l-33.88,54.37L369.88,50c-1.83-3-5.18-7.34-16.19-7.34-8.36,0-13.24,8.93-14.84,13.84-8.06,24.71-27.7,87.5-27.7,87.5H348l12.73-58.78s21.9,36.13,30.09,49c2.62,4.12,6,10.69,15.3,10.69s13.09-6.21,15.58-10.11c8.38-13.11,29.62-50.4,29.62-50.4l16,59.58,33.81,0s-12.46-48-26-88C473.76,52,469.85,43.06,459.6,43.06ZM609,51c-3.4-4.76-9.51-9.78-19.55-9.78S576,46.11,571.83,51s-68.07,93.16-68.07,93.16h39.11l46.62-66,27.88,41.44H573.75l-18.11,24.59H672.05L653,116.4S624.78,73,609,51Zm93.72,79.42a13.78,13.78,0,1,1-23.26-10,13.5,13.5,0,0,1,9.48-3.74A13.79,13.79,0,0,1,702.77,130.42Zm-2.43,0a11,11,0,0,0-3.31-8,11.18,11.18,0,0,0-16.13,0A11.43,11.43,0,0,0,689,141.9a10.88,10.88,0,0,0,8-3.37A11.16,11.16,0,0,0,700.34,130.42Zm-5,7.23,0.14,0.43h-3.81a11,11,0,0,1-.25-2.11,6.93,6.93,0,0,0-.25-1.87A1.85,1.85,0,0,0,690,133a4.53,4.53,0,0,0-1.37-.24l-0.88-.06H687v5.41h-4V122.81h4.25q2.83,0,3.15,0a7.3,7.3,0,0,1,3,.79,3.84,3.84,0,0,1,2,3.64,3.34,3.34,0,0,1-1.08,2.78,5,5,0,0,1-2.64,1,5.23,5.23,0,0,1,2.17.88,4.15,4.15,0,0,1,1.35,3.43v1.36a3.16,3.16,0,0,0,0,.45A2,2,0,0,0,695.34,137.66Zm-3.86-10.09a1.75,1.75,0,0,0-1.23-1.74,6.63,6.63,0,0,0-2.32-.32h-1v4.43h1.55a3.72,3.72,0,0,0,2.19-.56A2.08,2.08,0,0,0,691.47,127.56Z" transform="translate(-47.61 -41.22)"/></svg>