<?xml version="1.0" ?><svg style="enable-background:new 0 0 512 512;" version="1.1" viewBox="0 0 512 512" xml:space="preserve" xmlns="http://www.w3.org/2000/svg" xmlns:xlink="http://www.w3.org/1999/xlink"><style type="text/css">
	.st0{display:none;fill:#FDFDFD;}
	.st1{fill:#AF0606;}
</style><g id="Layer_1"/><g id="Layer_2"><g><path class="st0" d="M0.4,512.4c0-170.6,0-341.3,0-512c170.6,0,341.3,0,512,0c0,1.1,0,2.3,0,3.5c0,168.7,0,337.5,0,506.2    c0,2.3,0,2.3-2.3,2.3C340.2,512.4,170.3,512.4,0.4,512.4z"/><path class="st1" d="M255,207.4c0.4,7.3,0.7,12.9,0.9,18.5c0.2,3.6,0,7.2-0.8,10.8c-0.4,1.7-1,3.3-1.8,4.8    c-3,5.4-9.5,7.7-15.3,5.2c-3.1-1.3-5.5-3.5-7.7-6c-1.5-1.6-2.8-3.4-3.9-5.3c-23.7-37.8-47.5-75.5-70.9-113.5c-1.2-2-1.2-4-0.9-6.2    c0.6-4.1,2.9-7.2,6.3-9.5c2.6-1.8,5.4-3.4,8.3-4.7c11.9-5.5,24.4-9.3,37.1-12.4c6.8-1.6,13.6-3,20.6-3.6c3.7-0.3,7.4-0.6,11,0.2    c5.5,1.1,9,5.2,9.5,10.8c1.2,13.7,2.1,27.5,3,41.2c1.1,16.3,2.2,32.6,3.2,48.9C254.3,194.2,254.7,201.6,255,207.4z"/><path class="st1" d="M297.1,305c1.7,0,3.4,0.3,5,0.9c24.2,8,48.4,16.1,72.6,24.1c2.6,0.9,4.7,2.2,6,4.7c1.6,2.8,2.8,5.7,2.4,9.1    c-0.4,3.9-1.9,7.4-3.7,10.8c-7.9,14.6-18.2,27.5-30.6,38.6c-2.5,2.3-5.3,4.3-8.5,5.7c-1.5,0.7-3.1,1.2-4.7,1.3    c-3.9,0.4-6.8-1.4-9.3-4.2c-1.3-1.4-2.3-3.1-3.3-4.7c-9.5-15.2-18.9-30.4-28.4-45.6c-3.4-5.4-6.7-10.9-10.4-16.1    c-6.2-8.6-0.2-22.6,10.5-24.3C295.6,305.2,296.4,305.1,297.1,305z"/><path class="st1" d="M129.5,294.1c0.2-10.1,0.6-20.2,2.8-30.1c0.8-3.8,2-7.6,4.3-10.8c1.9-2.7,4.4-4.3,7.6-5    c2-0.4,3.8-0.1,5.6,0.6c5.7,1.9,11.1,4.3,16.7,6.5c18.5,7.5,36.9,15.1,55.3,22.9c7.1,3,11,9.6,10.1,17.2    c-0.6,5.6-3.6,9.6-8.9,11.5c-6.1,2.2-12.2,4.2-18.4,6.2c-18.1,5.8-36.4,11.1-54.8,16.1c-1,0.3-2.1,0.5-3.1,0.7    c-6,1.2-11.2-1.6-13.6-7.2c-1.4-3.3-2-6.8-2.6-10.3C129.6,306.3,129.6,300.2,129.5,294.1z"/><path class="st1" d="M256.7,374.8c-0.1,12.7,0,25.3-0.3,37.9c0,0.8-0.1,1.6-0.1,2.3c0,6.6-5.8,10.8-10.8,11.3    c-4.9,0.4-9.7-0.3-14.4-1.4c-14.4-3.4-28.1-8.6-41-15.8c-3-1.7-5.9-3.5-8.3-5.9c-2.1-2.1-3.4-4.6-4.1-7.4    c-0.6-2.4,0.2-4.8,1.5-6.9c1-1.6,2.1-3.1,3.2-4.5c10.3-12.9,21.1-25.5,31.8-38.1c5.2-6.1,10.4-12.3,15.2-18.6    c3.3-4.3,7.5-5.9,12.6-5.8c5.7,0.1,10,2.7,13,7.5c1,1.6,1.4,3.4,1.4,5.3C256.7,348.1,256.7,361.5,256.7,374.8z"/><path class="st1" d="M384.1,248.3c-0.1,5.6-2.9,10.7-9.2,12.5c-8.5,2.5-17.2,4.5-25.8,6.6c-16.1,3.8-32.2,7.5-48.3,11.5    c-2.9-0.2-5.9,1-8.9-0.1c-2.7-1-4.9-2.5-6.8-4.6c-1.9-2.2-3.1-4.7-3.6-7.6c-0.6-3.8,0.2-7.3,2.5-10.5c4-5.4,8-10.7,11.9-16.1    c9.9-13.6,19.7-27.1,29.6-40.7c1.6-2.2,3.1-4.4,5.1-6.3c3.2-3.2,7-4.7,11.6-3.7c2.2,0.5,4.1,1.5,5.9,2.9c3.8,2.9,7,6.4,10.1,10.1    c8.7,10.5,16.3,21.7,22.2,34c1.5,3,2.7,6.1,3.4,9.4C384,246.6,384.1,247.5,384.1,248.3z"/></g></g></svg>